<svg width="16" height="16" viewBox="0 0 16 16" fill="none" xmlns="http://www.w3.org/2000/svg">
<mask id="mask0_2256_5216" style="mask-type:alpha" maskUnits="userSpaceOnUse" x="0" y="0" width="16" height="16">
<rect width="16" height="16" fill="#D9D9D9"/>
</mask>
<g mask="url(#mask0_2256_5216)">
<path d="M4.66693 13.3333C4.16693 13.3333 3.73082 13.175 3.35859 12.8583C2.98637 12.5416 2.76693 12.1333 2.70026 11.6333C2.27804 11.4111 1.9447 11.0944 1.70026 10.6833C1.45582 10.2722 1.33359 9.82218 1.33359 9.33329C1.33359 8.7444 1.50304 8.2194 1.84193 7.75829C2.18082 7.29718 2.63359 6.97774 3.20026 6.79996L2.00026 5.59996L1.80026 5.79996C1.67804 5.92218 1.52248 5.98329 1.33359 5.98329C1.1447 5.98329 0.989149 5.92218 0.866927 5.79996C0.744705 5.67774 0.683594 5.52218 0.683594 5.33329C0.683594 5.1444 0.744705 4.98885 0.866927 4.86663L2.20026 3.53329C2.32248 3.41107 2.47804 3.34996 2.66693 3.34996C2.85582 3.34996 3.01137 3.41107 3.13359 3.53329C3.25582 3.65551 3.31693 3.81107 3.31693 3.99996C3.31693 4.18885 3.25582 4.3444 3.13359 4.46663L2.93359 4.66663L3.86693 5.59996L4.40026 4.03329C4.53359 3.62218 4.77526 3.29163 5.12526 3.04163C5.47526 2.79163 5.86693 2.66663 6.30026 2.66663H9.70026C10.1336 2.66663 10.5253 2.79163 10.8753 3.04163C11.2253 3.29163 11.4669 3.62218 11.6003 4.03329L12.5003 6.73329C13.1336 6.85552 13.653 7.16107 14.0586 7.64996C14.4641 8.13885 14.6669 8.69996 14.6669 9.33329C14.6669 9.82218 14.5447 10.2722 14.3003 10.6833C14.0558 11.0944 13.7225 11.4111 13.3003 11.6333C13.2336 12.1333 13.0141 12.5416 12.6419 12.8583C12.2697 13.175 11.8336 13.3333 11.3336 13.3333C10.9114 13.3333 10.5308 13.2111 10.1919 12.9666C9.85304 12.7222 9.61137 12.4 9.46693 12H6.53359C6.38915 12.4 6.14748 12.7222 5.80859 12.9666C5.46971 13.2111 5.08915 13.3333 4.66693 13.3333ZM4.93359 6.66663H7.33359V3.99996H6.30026C6.15582 3.99996 6.02804 4.04163 5.91693 4.12496C5.80582 4.20829 5.72248 4.32218 5.66693 4.46663L4.93359 6.66663ZM8.66693 6.66663H11.0669L10.3336 4.46663C10.278 4.32218 10.1947 4.20829 10.0836 4.12496C9.97248 4.04163 9.84471 3.99996 9.70026 3.99996H8.66693V6.66663ZM4.66693 12C4.85582 12 5.01415 11.9361 5.14193 11.8083C5.2697 11.6805 5.33359 11.5222 5.33359 11.3333C5.33359 11.1444 5.2697 10.9861 5.14193 10.8583C5.01415 10.7305 4.85582 10.6666 4.66693 10.6666C4.47804 10.6666 4.31971 10.7305 4.19193 10.8583C4.06415 10.9861 4.00026 11.1444 4.00026 11.3333C4.00026 11.5222 4.06415 11.6805 4.19193 11.8083C4.31971 11.9361 4.47804 12 4.66693 12ZM11.3336 12C11.5225 12 11.6808 11.9361 11.8086 11.8083C11.9364 11.6805 12.0003 11.5222 12.0003 11.3333C12.0003 11.1444 11.9364 10.9861 11.8086 10.8583C11.6808 10.7305 11.5225 10.6666 11.3336 10.6666C11.1447 10.6666 10.9864 10.7305 10.8586 10.8583C10.7308 10.9861 10.6669 11.1444 10.6669 11.3333C10.6669 11.5222 10.7308 11.6805 10.8586 11.8083C10.9864 11.9361 11.1447 12 11.3336 12Z" fill="#ED8721"/>
</g>
</svg>
